<svg id="Layer_1" data-name="Layer 1" xmlns="http://www.w3.org/2000/svg" viewBox="0 0 207.47 214.71"><title>logo</title><path d="M516.8,410.85c.12.16.24.3.35.46h.41A1.65,1.65,0,0,1,516.8,410.85Zm18.62,17.28a1.37,1.37,0,0,1-.82.18h1Zm.17-.13c0,.1,0,.21,0,.31a3.73,3.73,0,0,1,2.25,1.83A5,5,0,0,0,535.59,428Zm9,10.32h0c0-.59,0-1.18.1-1.77C544.65,437.1,544.61,437.67,544.57,438.32Zm.07.07-.08,0c.18.28.36.59.54.91Zm1.37,2.88a10.56,10.56,0,0,1-1.41,0H546Zm.57,0,0,0c.65.05,1.33,0,2,0C548,441.26,547.3,441.3,546.58,441.29Zm12.22,12.56.35.46h.3A2.73,2.73,0,0,1,558.8,453.85Zm1,.68-.12.12c.52.36.54.51.51.54l.12-.1,0,0s0-.05.05-.06l.08-.09Zm7.83,8.38c.15.2.43.48.92,1,0-.2,0-.41,0-.61A2.34,2.34,0,0,1,567.66,462.91Zm1,.4c0,.18,0,.39,0,.64a.94.94,0,0,1,1-.64Zm1,0h0c0,.2,0,.41,0,.61C569.63,463.73,569.6,463.52,569.6,463.32Zm0-.67a3.59,3.59,0,0,1,0,.66h0A2.91,2.91,0,0,0,569.6,462.65Zm17.75,18.12-.2-.06-2-.55c.79.32,1.42.6,1.93.86l.49-.18Zm.3-.64c0,.43,0,.82,0,1.16a4.58,4.58,0,0,1,1.69,1.41C588.88,482,588.43,481.33,587.65,480.13Zm14.56,25.09h0Zm0,0h0Z" transform="translate(-396.51 -392.86)" style="fill:#fff"/><path d="M536.6,459.31v1c-.23,1.92-2.51.39-2.6,1.21-.37,3.13-3.3,2.69-5,3.66s-4,.57-6,1.18c-4,1.24-8.16.27-12,1.1-5,1.07-10.46.43-15.37,3.66a20.75,20.75,0,0,0,0,2.37c.71,7.06-1.07,14-1.18,21-.05,3.06-1.5,6.08.13,9.17a2.29,2.29,0,0,1,0,1.95c-2.11,3.4-1.29,7.26-.7,10.55.56,3.08.44,6.08.74,9.11v1c0,2.64-.18,5.3,0,7.93a72.16,72.16,0,0,0,1.38,7.24c1-1.46.35-2.9.57-4.17h1v4.9l2.91-1.13c-.45,2.6-.81,4.73-1.24,7.22-3.18.24-4.3-2.11-5.76-4.47-1.7-2.75-1.84-5.89-2.82-8.81a37.46,37.46,0,0,1-2.15-11.6c0-2.19-.69-4.37-.92-6.57s.53-4.56-1-6.56c.25-4.23-1.52-8.25-1.07-12.56.36-3.45.72-7.12-.07-10.42-1.49-6.2-.35-12.39-1-18.68l-12.55-3.15c.22,1.85.41,3.81.68,5.76s.66,4.05,1,6.07h-1c-.4-.23-1-.38-1.17-.72-1.78-4.66-5.76-7.84-8.12-12.1-.8-1.45-1.38-3-2.05-4.52,3.67-2.07,7.43-1,10.73-1.84,3.51-.93,7-.44,10.65-1l-1.22-4.07c2.33-1.57,4.47-2.67,7-.78.43.31,1.3,0,2,.05,2.62.2,2.72.32,3.39,4,4.69,0,9.62.78,14.18-.18,6.58-1.39,13.07-.43,19.58-.75,2-.1,4,.6,6.06.93v3Z" transform="translate(-396.51 -392.86)" style="fill:#fff"/><path d="M601.6,505.31a4.93,4.93,0,0,1-1.69,3.72l-.36.25a6.32,6.32,0,0,1-.69.35,3.82,3.82,0,0,0-2.07,2.09,8.29,8.29,0,0,1-4,4.76c-3.58,2.22-6.11,5.44-9,8.26-4.8,4.63-9.49,9.37-14.14,14.14-1.44,1.49-2.31,3.74-4,4.73-1.9,1.13-2.5,3.1-4.07,4.36s-3,3.07-4.64,4.54c-1.37,1.28-3.25,2.2-4.16,3.72a10.25,10.25,0,0,1-4.18,3.68,2.25,2.25,0,0,0-1,1.05c-.74,2.33-2.85,3.21-4.56,4.53-3.83,3-6.66,6.92-10.17,10.21A139.59,139.59,0,0,0,522.55,586c-1.86,2.16-3.26,4.59-6,6-1.12.58-1.6,2.31-2.54,3.36-1.87,2.1-4.29,3.58-6,5.92s-3.93,4.06-6.19,6.32a31.83,31.83,0,0,1-2.5-2c-3.09-3-6.17-6.08-9.19-9.2-1.44-1.49-3.12-2.74-4-4.84a11.72,11.72,0,0,0-3.16-4.15c-1.13-1-2.75-1.34-4.12-2-3.47-1.76-5.84-4.82-8.14-7.72-1-1.22-2.06-2.43-3.07-3.66-1.26-1.52-3.16-2.35-4.22-4.17s-3.45-2.56-3.86-4.91c-2.53-1-4.09-3.15-5.91-5-7-6.92-13.9-13.91-20.89-20.83-1.12-1.11-2.07-2.36-3.77-3-1-.36-1.59-1.93-2.44-2.88a38.49,38.49,0,0,0-3.69-3.86,23.87,23.87,0,0,0-5.36-3.94c-2.12-1-2.4-3.57-4.61-4.36-.53-.18-.86-1.26-1.06-2-.95-3.49-3.48-5.85-6.11-7.91-1.62-1.27-2.58-3-4.08-4.3s-2.82-2.83-4.28-4.21a2.21,2.21,0,0,1-.18-3.41c3-3.43,6.07-6.84,9.21-10.17.46-.49,1.43-.5,2.17-.74l1,1a1.39,1.39,0,0,1,0,.5,53.67,53.67,0,0,1-6.2,8.51c-1.07.91-2.05,1.93-3.48,3.28,1.76.73,3.17,1,4.18,1.81s1.32,2.17,2.21,3c1.12,1.1,2.64,1.79,3.75,2.9,1.52,1.5,3.48,2.46,4.64,4.46s3.53,2.89,4.2,5.27c.12.42.68,1,1,1,4.51,0,4.74,4.91,7.65,6.7-.1,1.82,1.53,2.46,2.52,3.44,1.35,1.34,3.4,2.13,4.37,3.65A8.05,8.05,0,0,0,438,537.4a17.85,17.85,0,0,1,4.56,3.43c1.77,1.64,3.79,3.15,4.6,5.57a3.57,3.57,0,0,0,2.42,2.44c1.12.4,2.62.62,2.09,2.57-.11.38.73,1,1,1.52.64,1.16,2.72-.75,3,1.61.14,1.06,1.6,2,2.53,2.91a45.44,45.44,0,0,0,5,4.8c1.67,1.24,3,2.81,4.64,4.11a37.27,37.27,0,0,1,6.59,7.7c.76,1.09,1.13,2.17,2.63,2.35.39,0,.83.6,1.05,1,2.08,4,6.95,5.47,8.89,9.72.58,1.26,3,1.78,3.37,3,.62,2,2.34,2.07,3.53,2.91,2.34,1.68,3.75,4.09,5.6,6.15,1,1.17,1.94,1.52,3,.59a14.15,14.15,0,0,0,3.13-3.2c1-1.78,3-.83,4.22-2s.41-3.07,2-4.24c2.7-2,4.44-5.15,8-6.1.57-.15,2.55-.88.79-2.33a1.44,1.44,0,0,1,.46-.66c2.54-1.21,3.41-4.06,5.58-5.62.4-.29.72-1,1.06-1,3.79.08,4.19-3.3,5.77-5.48a8.78,8.78,0,0,1,1.91-2.19,41.67,41.67,0,0,0,11.6-11.62,12.78,12.78,0,0,1,1.75-1.78c2.82-2.82,5.64-5.67,8.48-8.47s4.72-6,8-8.1c1.34-.84,2.41-2,3.74-3,2-1.4,3.18-4.08,5.16-5.61,1.79-1.38,2.54-3.52,4.4-4.76a41.35,41.35,0,0,0,4.89-3.87c1.73-1.56,3.32-3.28,5-4.93s3-3.13,4.61-4.57a55.69,55.69,0,0,1,5.62-4.56C599.49,505.24,600.65,505.43,601.6,505.31Z" transform="translate(-396.51 -392.86)" style="fill:#fff"/><path d="M447.65,453.75a15.85,15.85,0,0,0-5.13,4.48,100.34,100.34,0,0,1-7.78,8.07c-1,1-2.17,1.81-3.12,2.83-1.89,2-3.66,4.14-5.56,6.15-.24.24-1,0-1.46,0l-5,5c.49,2.26-1.8,3.16-2.57,4.81-.68,1.44-2.9,2.16-4.43,3.19v-1l-1-1v-3.38c8.15-7.85,16.21-15.67,24.33-23.42,2.11-2,4.5-3.7,6.6-5.7,1.13-1.08,1.83-2.61,2.91-3.75.47-.49,1.42-.51,2.16-.75v1C447.58,451.4,445.46,452.34,447.65,453.75Z" transform="translate(-396.51 -392.86)" style="fill:#fff"/><path d="M513.6,406.31v1h-2a2.46,2.46,0,0,0-3-2c-.33,0-.83.14-1,0-1.93-2.22-3.81-4.48-5.89-7-2.12.35-3.63,1.81-4.81,4.06a31.55,31.55,0,0,1-7.07,9.07l-.38-1.84c-1.21-.52-1.22,1.16-2,1.31s-1.9.25-2.85.37v-1c1.73-1,1-3.42,2.9-4.56s3.05-3,4.66-4.46c1.42-1.27,3.07-2.29,4.49-3.56,1.68-1.52,3.22-3.18,4.92-4.87A22,22,0,0,0,508,400C510.37,401.75,511.44,404.47,513.6,406.31Z" transform="translate(-396.51 -392.86)" style="fill:#fff"/><path d="M469.6,426.31v4a4.42,4.42,0,0,0-1.19,2.69c-2.42.5-4.3,1.18-5,4.23-.41,1.8-2.48,3.32-4,4.72-2.05,1.86-4.63,3.24-5.75,5.9-.66,1.57-3.42.73-3.15,3.07-.35-.09-.69-.19-1.05-.26-.61-.13-1.23-.24-1.84-.35v-1c.94-1.05.86-2.68,2.68-3.38,1.23-.48,1.81-2.48,2.87-3.63,1.9-2.05,4-4,5.92-6,.78-.79,1.84-1.41,1.57-2.84a1.29,1.29,0,0,1,.57-1.14C464.58,431.12,466.73,428.21,469.6,426.31Z" transform="translate(-396.51 -392.86)" style="fill:#fff"/><path d="M486.62,415.43c-1.32,1.11-3.47,2-3.73,3.32-.44,2.17-2.72,2-3.29,3.56-2.49-.38-4,.86-5,3l-2-2c-.44-1.63.73-2.57,1.77-3.2a23,23,0,0,0,8-8c.46-.76,1.46-1.2,2.21-1.78v1C483.93,413.34,486.49,413.8,486.62,415.43Z" transform="translate(-396.51 -392.86)" style="fill:#fff"/><path d="M532.6,426.31c-2.53.26-4.41-.14-5.63-2.95-.85-1.95-2.87-3.39-4.37-5.05,1.5-.09.85-1.24,1-2h1C527.36,419.57,530.55,422.48,532.6,426.31Z" transform="translate(-396.51 -392.86)" style="fill:#fff"/><path d="M522.6,418.31c-1.19-1.79-3.66-1-5.15-2.66.36-.73.75-1.54,1.15-2.34a5.34,5.34,0,0,0,4,1v1l1,1C523.45,417.07,524.1,418.22,522.6,418.31Z" transform="translate(-396.51 -392.86)" style="fill:#fff"/><path d="M539.6,459.31h-6v-3c1.9.4,3.82.75,5.69,1.28C539.54,457.66,539.5,458.71,539.6,459.31Z" transform="translate(-396.51 -392.86)" style="fill:#fff"/><path d="M543.82,436H538.3l1.3-2.71,1-1A5.43,5.43,0,0,1,543.82,436Z" transform="translate(-396.51 -392.86)" style="fill:#fff"/><path d="M479.6,422.31c-.7.87-1.41,1.73-2.1,2.6l-1.9,2.4h-1v-2C475.59,423.17,477.11,421.93,479.6,422.31Z" transform="translate(-396.51 -392.86)" style="fill:#fff"/><path d="M474.6,426.31l-.83.33.83.67v1c-.56,2.21-2.29,2.08-4,2,.33-1,.67-2,1-3,1.93-.47.62-2,1-3h1l1,1Z" transform="translate(-396.51 -392.86)" style="fill:#fff"/><path d="M551.53,442.8l-3.38,1.75c-.65-1-1.29-2-2.11-3.24l0,0,.57,0c.72,0,1.39,0,2,0h.33l.36,0,.22,0A2.79,2.79,0,0,1,551.53,442.8Z" transform="translate(-396.51 -392.86)" style="fill:#fff"/><path d="M538.8,432.11a7.25,7.25,0,0,1-2.14-.28c-1.41-.71-1.06-2.06-1.06-3.52,0-.1,0-.21,0-.31a5,5,0,0,1,2.26,2.14C538.12,430.62,538.41,431.24,538.8,432.11Z" transform="translate(-396.51 -392.86)" style="fill:#fff"/><path d="M497.6,537.31h-1a20.88,20.88,0,0,1,.07-3.36c.05-.34.89-.55,1.93-1.13C498.36,534.74,499.43,536.24,497.6,537.31Z" transform="translate(-396.51 -392.86)" style="fill:#fff"/><path d="M522.6,414.31a5.34,5.34,0,0,1-4-1c-1.5-.09-.85-1.24-1-2,.19,0,.41-.05.6-.05a.54.54,0,0,1,.32.07C519.9,412.29,521.24,413.31,522.6,414.31Z" transform="translate(-396.51 -392.86)" style="fill:#fff"/><path d="M557.91,448.66c-1.15.37-1.76.76-2,.6a13.27,13.27,0,0,1-2.27-2,3.64,3.64,0,0,1,.66-.93C555.17,446.84,556,447.41,557.91,448.66Z" transform="translate(-396.51 -392.86)" style="fill:#fff"/><path d="M471.6,427.31c-.33,1-.67,2-1,3h-1v-4h1Z" transform="translate(-396.51 -392.86)" style="fill:#fff"/><path d="M562,451.89a18.78,18.78,0,0,1-2.81.36c-.19,0-.59-.81-.5-1.16.36-1.44,1.59-.59,2.43-.72C561.22,450.34,561.5,451.08,562,451.89Z" transform="translate(-396.51 -392.86)" style="fill:#fff"/><path d="M545.6,440.31l-1,1c-.39-.23-1-.36-1.14-.7a9.91,9.91,0,0,1-.67-2l1.78-.3h0l0,.08.46.93C545.27,439.65,545.44,440,545.6,440.31Z" transform="translate(-396.51 -392.86)" style="fill:#fff"/><path d="M511.6,407.31v1h-1l-2-3A2.46,2.46,0,0,1,511.6,407.31Z" transform="translate(-396.51 -392.86)" style="fill:#fff"/><path d="M568.61,463.31c0,.18,0,.39,0,.64l0,0h0c-.49-.53-.77-.81-.92-1l-.07-.07a.92.92,0,0,1-.13-.19c-.28-.64-.5-1.31-.74-2l1.27-.38c.2.68.43,1.36.6,2.05A4.39,4.39,0,0,1,568.61,463.31Z" transform="translate(-396.51 -392.86)" style="fill:#fff"/><path d="M422.6,478.31c-.19,2-.19,2-3,2l2-2Z" transform="translate(-396.51 -392.86)" style="fill:#fff"/><path d="M471.6,427.31l-1-1v-1l1-1h1C472.22,425.29,473.53,426.84,471.6,427.31Z" transform="translate(-396.51 -392.86)" style="fill:#fff"/><path d="M571.56,462.17c.14,1.64-1.14,1-2,1.15h0a3.59,3.59,0,0,0,0-.66,2.64,2.64,0,0,1,0-.8.7.7,0,0,1,.13-.24c.16-.2.46-.31,1-.26A1.17,1.17,0,0,1,571.56,462.17Z" transform="translate(-396.51 -392.86)" style="fill:#fff"/><path d="M474.6,479.31h-1c-1.5-.09-.85-1.24-1-2h1C475.1,477.4,474.45,478.55,474.6,479.31Z" transform="translate(-396.51 -392.86)" style="fill:#fff"/><path d="M475.55,480.51c.05.12-.68.81-.81.75a3,3,0,0,1-1.11-1c-.15-.21,0-.61,0-.92h1A6,6,0,0,1,475.55,480.51Z" transform="translate(-396.51 -392.86)" style="fill:#fff"/><polygon points="14.1 93.45 14.1 96.45 13.1 96.45 12.1 95.45 14.1 93.45" style="fill:#fff"/><path d="M539.6,459.31c-.47,1.93-2,.62-3,1v-1Z" transform="translate(-396.51 -392.86)" style="fill:#fff"/><path d="M579.21,471.83l-1.32-2.11C579.4,469.4,579.4,469.4,579.21,471.83Z" transform="translate(-396.51 -392.86)" style="fill:#fff"/><path d="M546,438.13l-1.36.26-.08,0a.28.28,0,0,1,0-.09c0-.65.08-1.22.13-1.78l.55-.39Z" transform="translate(-396.51 -392.86)" style="fill:#fff"/><path d="M589.53,483c-1.6.67-1.92,0-1.91-1.74,0-.34,0-.73,0-1.16.78,1.2,1.23,1.89,1.66,2.57l.12.18A1.3,1.3,0,0,1,589.53,483Z" transform="translate(-396.51 -392.86)" style="fill:#fff"/><path d="M412.6,488.31c-.09,1.5-1.24.85-2,1v-2h1Z" transform="translate(-396.51 -392.86)" style="fill:#fff"/><path d="M496.58,525.55a18.83,18.83,0,0,1-2,.76v-1c.28-.11.55-.23.83-.33l1-.31C496.51,525,496.67,525.51,496.58,525.55Z" transform="translate(-396.51 -392.86)" style="fill:#fff"/><path d="M534.6,427.31v1l-2-2C533.36,426.46,534.51,425.81,534.6,427.31Z" transform="translate(-396.51 -392.86)" style="fill:#fff"/><path d="M546.6,441.31h-2l1-1,1,1Z" transform="translate(-396.51 -392.86)" style="fill:#fff"/><path d="M569.63,463.93a1,1,0,0,1,0,.35,4.32,4.32,0,0,1-.65.86,4.91,4.91,0,0,1-.32-.85,2.19,2.19,0,0,1,0-.36h0c0-.2,0-.41,0-.61h1C569.6,463.52,569.63,463.73,569.63,463.93Z" transform="translate(-396.51 -392.86)" style="fill:#fff"/><path d="M524.6,416.31h-1l-1-1C523.36,415.46,524.51,414.81,524.6,416.31Z" transform="translate(-396.51 -392.86)" style="fill:#fff"/><path d="M587.6,480.84l-.49.18a5,5,0,0,1-.91.26c-.14,0-.34-.36-1-1.12l2,.55.2.06Z" transform="translate(-396.51 -392.86)" style="fill:#fff"/><polygon points="16.1 94.45 14.1 94.45 14.1 93.45 15.1 93.45 16.1 94.45" style="fill:#fff"/><path d="M604,505l-1.68.24h-.11l-.3,0h-.14l-.14,0a8.85,8.85,0,0,1,1.17-1C602.91,504.27,603.26,504.59,604,505Z" transform="translate(-396.51 -392.86)" style="fill:#fff"/><path d="M514.6,408.31h-1v-2C515.1,406.4,514.45,407.55,514.6,408.31Z" transform="translate(-396.51 -392.86)" style="fill:#fff"/><rect x="184.35" y="79.45" width="0.5" height="2" style="fill:#fff"/><polygon points="27.1 84.45 26.1 85.45 26.1 84.45 27.1 84.45" style="fill:#fff"/><polygon points="118.1 15.45 118.1 16.45 117.1 15.45 118.1 15.45" style="fill:#fff"/><polygon points="27.1 83.45 27.1 84.45 26.1 84.45 27.1 83.45" style="fill:#fff"/><path d="M511.6,408.31l-.67.83-.33-.83Z" transform="translate(-396.51 -392.86)" style="fill:#fff"/><path d="M560.52,454.89l-.08.09s0,0-.05.06l0,0-.12.1h0a5.13,5.13,0,0,1-.6-.44l.11-.11.12-.12.22-.22Z" transform="translate(-396.51 -392.86)" style="fill:#fff"/><path d="M559.6,454.31h-.45l-.35-.46,0,0-.07-.09c.21-.06.56-.23.61-.17A2.68,2.68,0,0,1,559.6,454.31Z" transform="translate(-396.51 -392.86)" style="fill:#fff"/><polygon points="139.1 35.45 138.1 35.45 138.1 34.45 139.1 35.45" style="fill:#fff"/><polygon points="79.1 34.45 78.1 35.45 78.1 34.45 79.1 34.45" style="fill:#fff"/><polygon points="74.1 32.45 74.1 33.45 73.1 33.45 74.1 32.45" style="fill:#fff"/><polygon points="76.1 30.45 76.1 31.45 75.1 31.45 76.1 30.45" style="fill:#fff"/><path d="M517.6,411.3h-.45c-.11-.16-.23-.3-.35-.46l0-.06-.06-.07c.21-.06.56-.23.61-.17A2.62,2.62,0,0,1,517.6,411.3Z" transform="translate(-396.51 -392.86)" style="fill:#fff"/><path d="M515.43,409l-.83.33v-1Z" transform="translate(-396.51 -392.86)" style="fill:#fff"/><path d="M411.6,487.31h1v1Z" transform="translate(-396.51 -392.86)" style="fill:#fff"/><path d="M422.6,477.31v1h-1Z" transform="translate(-396.51 -392.86)" style="fill:#fff"/><path d="M472.6,424.31v-1l1,1Z" transform="translate(-396.51 -392.86)" style="fill:#fff"/><path d="M474.6,427.31l-.83-.67.83-.33Z" transform="translate(-396.51 -392.86)" style="fill:#fff"/></svg>