<svg id="Layer_1" data-name="Layer 1" xmlns="http://www.w3.org/2000/svg" viewBox="0 0 208.74 288.52"><title>tanza</title><path d="M547.94,293.88h0l0,.09h0Zm0,.09,0-.09h0V294h0c.29.89.57,1.79.86,2.68C548.53,295.76,548.25,294.86,548,294Zm-75.33,33.89h0c.25.7.49,1.38.73,2.08l-.72-2.09Zm-3.94-47.71,3.4-2.07c-1.14.69-2.26,1.38-3.4,2.06Zm-5.89,6,.09-.17h-.14Zm-6.63,232.55h.05l-.13-.09Z" transform="translate(-392.82 -247.7)" style="fill:#fefdfd"/><path d="M494.29,319.15c-2.87,23-2.81,45.39-1.17,67.8v6l2.78-2.78c2.16,2.57,3.65,5.2,0,9.31-1.81-2.93-4.18-5.26-4.76-8-2.28-10.63-4.5-21.33-5.77-32.11-1.42-12-2.11-24.08-2.44-36.15-.13-4.48-1.65-6.23-5.69-6.79-2.27-.31-4.51-.92-7.64-1.58.77,3.9,1.47,7.49,2.17,11.07l-1.69.06c-3.63-5.39-7.27-10.77-11.45-17l22.27-2.38c-.24-1.29-.51-2.74-.78-4.16,6.41-2,10.19-.87,12.73,3.75h41.1c-4.32,2.57.59,2.49,1.06,3.68-7.72,6.31-17.28,5.83-26.36,7.15Z" transform="translate(-392.82 -247.7)" style="fill:#0a0a0a"/><path d="M601.56,355,499.16,457.83c-5.7-6.27-11.38-12.48-17-18.73-.53-.59-.6-1.79-1.19-2.09-13.06-6.55-20-19.52-30.51-28.84-11.85-10.58-23-21.93-34.38-33.05-2.4-2.35-4.3-5.21-6.47-7.79s-4.35-5.4-6.81-7.81c-2.94-2.87-6.2-5.42-10-8.67L407,337.7c.05.81.1,1.62.16,2.42-2.8,3.62-5.6,7.24-8,10.38L499.72,451.31c3.18-3.08,6.6-6.5,10.12-9.81,6.17-5.79,12.53-11.38,18.56-17.3,5.29-5.21,10.2-10.81,15.37-16.14,8.06-8.32,16.11-16.64,24.33-24.8,9-8.89,18.06-17.65,27.21-26.34,1.45-1.38,3.49-2.14,5.26-3.19Z" transform="translate(-392.82 -247.7)" style="fill:#f12d3d"/><path d="M448,495c.29,8.22-.14,16.47-.14,24.7,0,2.54.36,5.09.56,7.63l1.41.24,2.34-5.59,1.39.07a61.14,61.14,0,0,1-.6,7.92c-.3,1.51-1.42,3.89-2.36,4a5.18,5.18,0,0,1-4.3-2.29,22.76,22.76,0,0,1-2-8.57c-.23-11-.09-21.93-.09-34.41C435.2,492.28,426.77,495,419,499c-4.93,2.5-5.91,3-9.87-3.33l34-11.35v-2.87l12,.89c-.06.49-.12,1-.19,1.48C450.49,486.25,447.75,489.45,448,495Z" transform="translate(-392.82 -247.7)" style="fill:#0f0f0f"/><path d="M567.05,497.64l1.44.06,1.43,5.33,1-.07c2.52-4,3.16-8-.36-11.8-.92-1-2.56-2-3.68-1.86s-2.27,1.95-2.39,3.13a80,80,0,0,0-.57,13.38c.3,4.58-.63,7.17-5.55,5.58-2.21-1.84-4.77-4.26-7.18-4.11-3.17.18-6.63,2.71-5.94,6.52.51,2.77,2.58,6.84,4.73,7.41,4.27,1.13,7.94-1.33,8.72-6.13h5.83c0,6.14-.1,12.08.1,18,0,1.06,1.31,2.08,2,3.12l1.29-.78c-.35-4.63-.68-9.25-1.05-13.87-.35-4.43-.45-8.72,5.1-10.81l-5.59-1.12C566.64,505.67,566.84,501.66,567.05,497.64Zm-16.68,21.44c-.67.06-2.16-1.43-2.07-2,.66-3.94,3.26-5.55,6.94-5.4.34.36.56.48.55.59C555.65,515.87,554.46,518.77,550.37,519.08Z" transform="translate(-392.82 -247.7)" style="fill:#171717"/><path d="M585.9,519.91a22.61,22.61,0,0,0,3.52-3.12c-.69,3.85-5.44,8.75-8.59,9-4,.27-4.69-2.78-4.87-5.6-.3-4.62-.08-9.27-.08-13.87-2.27-.8-6.78,2.78-6-3.25l1-.07c2.87,1.47,5.24,2.12,5.33-2.54.06-3.09.53-6.17.89-10.09,6.76,3.38,1.11,8.8,3.43,12.73h8.81l.27,1.27c-2.2.52-4.4,1.43-6.61,1.47-3.37.08-4.37,1.9-4.41,4.73A31.7,31.7,0,0,0,579,517c.31,1.65,1,4.06,2.11,4.5S584.4,520.75,585.9,519.91Z" transform="translate(-392.82 -247.7)" style="fill:#212121"/><path d="M519.93,509l0,1.42c-3.86.95-6.57,3-6.86,7.3,0,.76-.07,1.52-.11,2.27-5.1,1-10.2,2.09-15.33,2.94a3.17,3.17,0,0,1-2.76-1.06,3.77,3.77,0,0,1,.46-3c1.69-2.82,3.6-5.51,5.43-8.25l.8-1.36-2.09.05c-2.18.42-4.35.9-6.54,1.16-.19,0-.55-1.34-.83-2.06a41.42,41.42,0,0,1,6.58-2.22c1.92-.33,4,.14,6,.26a47.14,47.14,0,0,1-1.71,6.3,84,84,0,0,1-4.07,7.43l11-.92C509.86,510.91,512.94,508,519.93,509Z" transform="translate(-392.82 -247.7)" style="fill:#1d1d1d"/><path d="M520,510.55v-.1h0Z" transform="translate(-392.82 -247.7)" style="fill:#1d1d1d"/><path d="M443,305.31c-9.36,9.45-18.5,19.11-27.74,28.66-1,1.07-2.23,2-3.35,3l-1.71-.7c-.23-.73-.45-1.46-.68-2.19l.54-1.94L443.49,300l1.36-.06C446,302.36,444.68,303.63,443,305.31Z" transform="translate(-392.82 -247.7)" style="fill:#f13141"/><path d="M541.41,520.51c-1.1,1.21-2.27,2.87-3.66,3.18-2,.43-4.13-.2-6.22-.38.53-1.86,1.05-3.73,1.58-5.6l1.62.47c.25,1,.49,2,1,4l4.46-5.76a61.18,61.18,0,0,1-7.63-1.29,5.46,5.46,0,0,1-3.26-2.52c-.34-.81.54-2.71,1.43-3.35a33.37,33.37,0,0,1,7.34-4c.76-.3,2.15,1.06,3.26,1.66-1,.92-1.75,2.28-2.88,2.68a36.7,36.7,0,0,1-6.24,1.12c0,.63.11,1.25.16,1.87,2.34.36,4.73.55,7,1.12C543.57,514.75,544.3,517.29,541.41,520.51Z" transform="translate(-392.82 -247.7)" style="fill:#1c1c1c"/><path d="M470.48,512c.45-3.3-1.25-3.13-3.21-3.26-1-.06-2,.29-3,.13-6.14-1.1-10.12,3.71-8.08,9.84l-.13-.09.08.08c4.14,4.44,7.39,1.51,10.49-1.78,2,2.88,1.61,8.79,7.72,5.11C469.4,519.85,470,515.55,470.48,512Zm-10.49,8c-1.64-6.11.46-8.61,6.76-8.85Z" transform="translate(-392.82 -247.7)" style="fill:#191919"/><path d="M467.23,278.29c-.06.58-.11,1.15-.16,1.72-.87,1-1.82,2-2.59,3.05a26.68,26.68,0,0,0-1.58,2.88l-.09.17-.05-.17L447,300.6h0l-2.11-.64-1.36.06c4.87-5.06,9.72-10.15,14.62-15.19,2.58-2.66,5.25-5.23,7.88-7.84C466.4,277.43,466.81,277.86,467.23,278.29Z" transform="translate(-392.82 -247.7)" style="fill:#f03645"/><path d="M520,510.44v.05l0,.06Z" transform="translate(-392.82 -247.7)" style="fill:#181818"/><path d="M528.85,521.72c-4.06,2.58-4.06,2.58-7.07-3.36L513,520c0-.75.08-1.51.11-2.27,3.64.78,6.61-2.36,6.91-7.26l1.12-1.46c3-1,4.1-.21,3.86,3.17C524.54,518.57,525.47,520.39,528.85,521.72Z" transform="translate(-392.82 -247.7)" style="fill:#181818"/><path d="M484.47,265.1l-10.09,7.68-2.28,5.3-3.4,2.07h0l2.61-6.17L470,273l-.29-.13q5.87-6,11.74-12l1.43.19Z" transform="translate(-392.82 -247.7)" style="fill:#f13141"/><path d="M487.94,523.23c-4.18-.12-5.36-2.14-4.54-7.33.28-1.76,2.2-4.11-1.37-4.83l-.83-1,3.63-3.33c1,1.52,2.79,2.95,3,4.56A110.5,110.5,0,0,1,487.94,523.23Z" transform="translate(-392.82 -247.7)" style="fill:#161616"/><path d="M496.86,247.7c-2.67,6.59-6.22,11.62-13.33,12.88l-1-1C486.49,254.79,489.34,248.67,496.86,247.7Z" transform="translate(-392.82 -247.7)" style="fill:#ef3544"/><path d="M482,511.07,477,521.37l-2-.72c.47-4.85.94-9.69,1.5-15.37l4.71,4.78Z" transform="translate(-392.82 -247.7)" style="fill:#1d1d1d"/><path d="M509.07,252.88l-1.25,1.24-2.56-.42-4-5.22C505.79,246.88,507.1,250.47,509.07,252.88Z" transform="translate(-392.82 -247.7)" style="fill:#f12d3d"/><path d="M529.12,274l-2.35.15L521.85,268l.79-1,1.36,0Z" transform="translate(-392.82 -247.7)" style="fill:#f03645"/><path d="M511.08,256l-.05,0s0,0,0,0Z" transform="translate(-392.82 -247.7)" style="fill:#f1b0b5"/><path d="M512,257.75c-.14.92-.28,1.83-.56,3.72l-6.19-7.77,2.56.42L511,256C511.35,256.56,511.69,257.15,512,257.75Z" transform="translate(-392.82 -247.7)" style="fill:#f1b0b5"/><path d="M518.93,262.13l-1,.93L512,257.75c-.32-.6-.66-1.19-1-1.8,0,0,0,0,0,0l.07.06h0Z" transform="translate(-392.82 -247.7)" style="fill:#f53a4a"/><path d="M549.7,293.7l-.16.26h-1.62v-.09l-4.09-2.74,1-.94Z" transform="translate(-392.82 -247.7)" style="fill:#eb9198"/><path d="M538.79,282.1l-.69.77-4.46-4.46.77-.82Z" transform="translate(-392.82 -247.7)" style="fill:#f2515e"/><path d="M520.06,264h0s0,0,0,0Z" transform="translate(-392.82 -247.7)" style="fill:#f1dcde"/><path d="M522.64,267l-.79,1-6.49-3,3-1.06L520,264Z" transform="translate(-392.82 -247.7)" style="fill:#f1dcde"/><path d="M496.2,388.13l-.3,2-2.78,2.78v-6l1.58-.24Z" transform="translate(-392.82 -247.7)" style="fill:#b4b4b4"/><path d="M542,284.6l-1.36,1.6-2.56-3.33.69-.77Z" transform="translate(-392.82 -247.7)" style="fill:#eec5c8"/><path d="M537.16,309.72l-2.18.2c-.47-1.19-5.38-1.11-1.06-3.68Z" transform="translate(-392.82 -247.7)" style="fill:#2a2a2a"/><path d="M453,518.1l3,.54-2.54,3.45-1.39-.07C452.45,520.61,452.78,519.19,453,518.1Z" transform="translate(-392.82 -247.7)" style="fill:#2a2a2a"/><path d="M456.23,518.67h-.05l-.12,0,0-.06Z" transform="translate(-392.82 -247.7)" style="fill:#2a2a2a"/><path d="M411.92,336.93l-4.81,3.19c-.06-.8-.11-1.61-.16-2.42l3.26-1.47Z" transform="translate(-392.82 -247.7)" style="fill:#ee747e"/><path d="M471.31,274l-2.61,6.17h0l-1.63-.14c.05-.57.1-1.14.16-1.72L470,274Z" transform="translate(-392.82 -247.7)" style="fill:#ebd0d2"/><path d="M472.1,278.08l2.28-5.3Z" transform="translate(-392.82 -247.7)" style="fill:#eb9198"/><path d="M559.89,300.47l-.33,1.39-3.1-.66c.23-.75.35-1.29.39-1.29C557.87,300.06,558.88,300.27,559.89,300.47Z" transform="translate(-392.82 -247.7)" style="fill:#eec5c8"/><path d="M554.36,297.65l-.48.71-2.16-1.25c.24-.32.47-.65.7-1Z" transform="translate(-392.82 -247.7)" style="fill:#f35c68"/><path d="M470,274l-2.79,4.27c-.42-.43-.83-.86-1.24-1.3l3.71-4.17.29.13Z" transform="translate(-392.82 -247.7)" style="fill:#f2515e"/><path d="M463.56,482l-4.66.82a1.78,1.78,0,0,1,.1-.69l4.23-1.37Z" transform="translate(-392.82 -247.7)" style="fill:#a2a2a2"/><path d="M496.81,383.4c-.21,1.57-.41,3.15-.61,4.73l-1.5-1.42.84-3.5Z" transform="translate(-392.82 -247.7)" style="fill:#a2a2a2"/><path d="M459,482.11a1.78,1.78,0,0,0-.1.69l-4,1c.07-.5.13-1,.19-1.48Z" transform="translate(-392.82 -247.7)" style="fill:#686868"/><path d="M567,313,567,313l-2-1.87,1.24-.84C566.49,311.2,566.76,312.09,567,313Z" transform="translate(-392.82 -247.7)" style="fill:#eec5c8"/><path d="M511.08,256l-.05,0-3.21-1.83,1.25-1.24Z" transform="translate(-392.82 -247.7)" style="fill:#f53a4a"/><path d="M569.82,312.24,568,314a7.8,7.8,0,0,1,0-1l.81-1.65Z" transform="translate(-392.82 -247.7)" style="fill:#f1dcde"/><path d="M547.93,293.88l0,.09h0Z" transform="translate(-392.82 -247.7)" style="fill:#f1dcde"/><path d="M549.7,293.7v2.77l-.88.18c-.29-.89-.57-1.79-.86-2.68h1.58Z" transform="translate(-392.82 -247.7)" style="fill:#f1dcde"/><path d="M524,267l-1.36,0L520,264s0,0,0,0l0,0Z" transform="translate(-392.82 -247.7)" style="fill:#f35c68"/><path d="M473.37,330l-.71.33-.83-1.66.81-.75h0Z" transform="translate(-392.82 -247.7)" style="fill:#686868"/><path d="M586,331,586,331l-2.58-.75.54-1Z" transform="translate(-392.82 -247.7)" style="fill:#ebd0d2"/><path d="M472.64,327.86l-.81.76L470.05,326l1.69-.06Z" transform="translate(-392.82 -247.7)" style="fill:#2a2a2a"/><path d="M559.41,304.27c-.14.21-.29.41-.43.61a11.06,11.06,0,0,1-1.31-.93c-.08-.08.14-.49.22-.74Z" transform="translate(-392.82 -247.7)" style="fill:#eec5c8"/><path d="M530.52,275l-3.34-.11Z" transform="translate(-392.82 -247.7)" style="fill:#eb9198"/><path d="M579.83,323.16c-.28.07-.64.28-.79.18s-.31-.52-.46-.8c.29-.08.66-.3.84-.19S579.7,322.87,579.83,323.16Z" transform="translate(-392.82 -247.7)" style="fill:#eec5c8"/><path d="M543.45,289.42l-.57.7L541.67,289l.33-.43Z" transform="translate(-392.82 -247.7)" style="fill:#f35c68"/><path d="M463,285.94l-.21.17-.05-.17Z" transform="translate(-392.82 -247.7)" style="fill:#ee747e"/><path d="M464.14,286H463c.28-.21.55-.44.82-.65Z" transform="translate(-392.82 -247.7)" style="fill:#ee747e"/><path d="M534.41,277.59l-.77.82-2.1-1.76c.21-.27.42-.55.62-.83Z" transform="translate(-392.82 -247.7)" style="fill:#f2515e"/><path d="M530.52,275l-3.34-.11a1.42,1.42,0,0,1-.41-.76l2.35-.15Z" transform="translate(-392.82 -247.7)" style="fill:#f53a4a"/><path d="M520.06,264h0l-1.72-.07q-.2-.42-.42-.84l1-.93Z" transform="translate(-392.82 -247.7)" style="fill:#f35c68"/><path d="M577.53,319.61c-.3.08-.64.3-.86.21s-.28-.48-.41-.73c.26-.09.59-.31.76-.22S577.37,319.34,577.53,319.61Z" transform="translate(-392.82 -247.7)" style="fill:#f1b0b5"/><path d="M410.07,332.1l-.54,1.94Z" transform="translate(-392.82 -247.7)" style="fill:#ee747e"/><path d="M544.89,290.2l-1,.94-1-1,.57-.7Z" transform="translate(-392.82 -247.7)" style="fill:#f35c68"/><path d="M587,332,587,332l-1-1L586,331Z" transform="translate(-392.82 -247.7)" style="fill:#ebd0d2"/><path d="M587.45,332.48,587,332,587,332Z" transform="translate(-392.82 -247.7)" style="fill:#ebd0d2"/><path d="M568,314,567,313,567,313c.32,0,.65,0,1,.09A7.8,7.8,0,0,0,568,314Z" transform="translate(-392.82 -247.7)" style="fill:#eec5c8"/><path d="M521.13,509,520,510.49l0,.06v-.1l0-1.42Z" transform="translate(-392.82 -247.7)" style="fill:#e7e7e7"/><path d="M483.53,260.58a.7.7,0,0,1-.66.42l-1.43-.19c.37-.42.75-.83,1.12-1.24Z" transform="translate(-392.82 -247.7)" style="fill:#ef3544"/><path d="M555.24,511.68c.34.36.56.48.55.59-.14,3.6-1.33,6.5-5.42,6.81-.67.06-2.16-1.43-2.07-2C549,513.14,551.56,511.53,555.24,511.68Z" transform="translate(-392.82 -247.7)" style="fill:#ebebeb"/><path d="M520,510.44c-.28,4.93-3.26,8.09-6.91,7.31C513.39,513.41,516.12,511.38,520,510.44Z" transform="translate(-392.82 -247.7)" style="fill:#e7e7e7"/><path d="M501.59,509.24l-.8,1.36-1.29-1.31Z" transform="translate(-392.82 -247.7)" style="fill:#fefdfd"/><path d="M460,519.94c-1.64-6.11.46-8.61,6.76-8.85Z" transform="translate(-392.82 -247.7)" style="fill:#e7e7e7"/><path d="M470,274l0-1.07,1.32,1Z" transform="translate(-392.82 -247.7)" style="fill:#eb9198"/><path d="M549.54,294h0Z" transform="translate(-392.82 -247.7)" style="fill:#fefdfd"/></svg>