<?xml version="1.0" encoding="utf-8"?>
<!-- Generator: Adobe Illustrator 24.0.2, SVG Export Plug-In . SVG Version: 6.00 Build 0)  -->
<svg version="1.1" id="Layer_1" xmlns="http://www.w3.org/2000/svg" xmlns:xlink="http://www.w3.org/1999/xlink" x="0px" y="0px"
	 viewBox="0 0 1024 768" style="enable-background:new 0 0 1024 768;" xml:space="preserve">
<style type="text/css">
	.st0{fill:#FDFDFD;}
	.st1{fill:#0F0F0F;}
	.st2{fill:#1C1C1C;}
	.st3{fill:#F7F7F7;}
	.st4{fill:#484848;}
	.st5{fill:#090909;}
	.st6{fill:#FE1414;}
	.st7{fill:#FE0000;}
	.st8{fill:#191919;}
	.st9{fill:#1A1A1A;}
	.st10{fill:#161616;}
	.st11{fill:#FE1B1B;}
	.st12{fill:#FE1F1F;}
	.st13{fill:#202020;}
	.st14{fill:#FE2525;}
	.st15{fill:#EFD3D3;}
	.st16{fill:#949494;}
	.st17{fill:#F6A9A9;}
	.st18{fill:#E7CDCD;}
	.st19{fill:#FE6262;}
	.st20{fill:#FE3D3D;}
	.st21{fill:#838383;}
	.st22{fill:#FBC1C1;}
	.st23{fill:#FE8282;}
	.st24{fill:#2D2D2D;}
	.st25{fill:#E7E7E7;}
	.st26{fill:#DFDFDF;}
</style>
<path class="st0" d="M526.25,252.76c0.12,0.16,0.24,0.3,0.35,0.46c0.15,0,0.29,0,0.41-0.01
	C526.57,253.07,526.39,252.92,526.25,252.76z M544.87,270.05c-0.27,0.18-0.55,0.18-0.82,0.18h1L544.87,270.05z M545.04,269.92
	c0.01,0.1,0.01,0.21,0.01,0.31c1.19,0.51,1.66,0.8,2.25,1.83C546.71,271,546.24,270.63,545.04,269.92z M554.02,280.24
	c0.01-0.01,0.02-0.01,0.03-0.01c0.01-0.59,0.05-1.18,0.1-1.77C554.1,279.01,554.06,279.58,554.02,280.24z M554.09,280.31
	c-0.03,0.01-0.05,0.01-0.08,0.02c0.18,0.28,0.36,0.59,0.54,0.91C554.4,280.93,554.24,280.62,554.09,280.31z M555.46,283.19
	c-0.08,0.04-0.74,0.04-1.41,0.04h1.44C555.48,283.21,555.47,283.19,555.46,283.19z M556.03,283.2c0.01,0.01,0.01,0.01,0.02,0.02
	c0.65,0.05,1.33-0.03,2-0.03C557.42,283.18,556.75,283.21,556.03,283.2z M568.25,295.76c0.12,0.16,0.23,0.3,0.35,0.46h0.3
	C568.52,296.01,568.35,295.88,568.25,295.76z M569.28,296.44c-0.04,0.04-0.08,0.08-0.12,0.12c0.52,0.36,0.54,0.51,0.51,0.54
	c0.02-0.01,0.07-0.05,0.12-0.1c0.02-0.03,0.03-0.04,0.05-0.05c0.02-0.03,0.03-0.05,0.05-0.06c0.03-0.03,0.06-0.07,0.08-0.09
	C569.7,296.67,569.47,296.55,569.28,296.44z M577.11,304.82c0.15,0.2,0.43,0.48,0.92,1.01c0-0.2,0.02-0.41,0.02-0.61
	C577.57,305.11,577.29,304.98,577.11,304.82z M578.06,305.23c-0.01,0.18-0.01,0.39-0.01,0.64c0.33-0.63,0.66-0.64,0.99-0.64H578.06z
	 M579.05,305.24h-0.01c0.01,0.2,0.04,0.41,0.04,0.61C579.08,305.64,579.05,305.44,579.05,305.24z M579.05,304.57
	c0.01,0.23,0.02,0.46-0.01,0.66h0.01C579.08,305.02,579.07,304.8,579.05,304.57z M596.8,322.69c-0.07-0.02-0.13-0.04-0.2-0.06
	c-0.48-0.13-1.05-0.3-1.97-0.55c0.79,0.32,1.42,0.6,1.93,0.86c0.16-0.06,0.33-0.12,0.49-0.18
	C596.97,322.74,596.89,322.7,596.8,322.69z M597.1,322.05c-0.02,0.43-0.03,0.82-0.03,1.16c0.98,0.55,1.39,0.98,1.69,1.41
	C598.33,323.94,597.88,323.25,597.1,322.05z M611.66,347.13c-0.01,0-0.02,0.01-0.03,0.01c0.03-0.01,0.06-0.01,0.08-0.01
	c0.01-0.01,0.02-0.01,0.03-0.01C611.72,347.13,611.69,347.13,611.66,347.13z M611.66,347.13c-0.01,0-0.02,0.01-0.03,0.01
	c0.03-0.01,0.06-0.01,0.08-0.01c0.01-0.01,0.02-0.01,0.03-0.01C611.72,347.13,611.69,347.13,611.66,347.13z"/>
<path class="st1" d="M405.05,516.22v8.53c-1.47-0.28-1.92,2.04-3.8,1.27c-1.93-0.79-3.01-2.1-3.81-3.89
	c-0.78-1.74-1.47-3.38-1.45-5.42c0.13-10.67,0.06-21.33,0.06-32v-3.76c-9.36,3.12-18.5,5.49-26.32,11.27c-0.64,0-1.3-0.09-1.92,0.02
	c-2.35,0.38-4.18-0.37-5.57-2.3c-0.25-0.34-0.79-0.48-1.19-0.72v-2c2.32-0.82,4.65-1.59,6.95-2.47c2.29-0.87,4.64-1.67,6.78-2.84
	c2.2-1.21,4.88-1.04,6.86-2.69c3.75,0.44,6.8-2.68,10.64-2.08c0.73,0.12,1.62-0.77,2.65-1.32v-3.25c0.59-0.14,1.08-0.42,1.47-0.31
	c0.73,0.19,1.43,0.56,2.1,0.92c1.75,0.93,3.61,1.19,5.55,1.04v2c-0.23,0.73-0.24,1.7-0.73,2.15c-1.47,1.34-2.43,2.87-2.77,4.83
	c-0.07,0.44-0.59,0.96-0.46,1.26c1.6,3.71-1.08,7.48,0.06,11.05c0.8,2.53,1.55,5.23,0.75,7.49c-1.47,4.2-0.49,8.36-0.79,12.52
	c-0.06,0.82,0.6,1.7,1.16,3.14c0.81-1.11,1.3-1.78,1.78-2.44H405.05z"/>
<path class="st2" d="M628.4,503.64c-0.87,0.23-1.54,0.35-2.16,0.59c-1.93,0.75-3.4,1.89-3.19,4.26c0.35,4.02-0.76,8.13,0.93,12.1
	c0.48,1.13-0.02,2.64,0.09,3.97c0.12,1.39-0.25,2.73,0.79,4.2c0.83,1.16,0.28,3.1-0.81,4.46h-3c-1.01-1.19-1.02-2.62-1.01-4.08
	c0.02-7.49,0.01-14.98,0.01-22.81h-5.87v-2.86c0.39-0.08,0.84-0.2,1.3-0.24c3.26-0.31,3.53-0.56,3.56-3.81
	c0.04-3.66,0.2-7.34-0.06-10.98c-0.16-2.2,0.59-4.1,1.11-6.08c0.5-1.92,3.15-3.1,4.58-1.91c1.96,1.61,3.98,3.35,4.37,6.14
	c0.4,2.83-0.74,6.91-2.38,8.49c-0.19,0.18-0.62,0.1-0.95,0.14c-0.59-1.54-2.89-2.84-0.66-4.78c-0.42-0.48-0.83-0.95-1.78-2.03v12.56
	C626.35,501.3,626.35,501.3,628.4,503.64z"/>
<path class="st3" d="M661.05,496.23v12c-2.2-0.15-3.12,1.39-4,3c-0.69,0.33-1.38,0.67-2.07,1c-3.24,1.52-5.38,0.42-5.92-3.07
	c-0.1-0.65-0.01-1.33-0.01-1.99v-7.44l2.15-2.15c3.2-0.49,6.03-0.92,8.85-1.35H661.05z"/>
<path class="st4" d="M661.05,508.23v2c-1,0.33-2,0.67-3,1h-1C657.93,509.62,658.85,508.07,661.05,508.23z"/>
<path class="st5" d="M546.05,301.23v1c-0.23,1.92-2.51,0.39-2.6,1.21c-0.37,3.13-3.3,2.69-5.01,3.66c-1.67,0.94-4.04,0.57-5.98,1.18
	c-3.98,1.24-8.16,0.27-12.04,1.1c-5.04,1.07-10.46,0.43-15.37,3.66c0,0.43-0.08,1.41,0.01,2.37c0.71,7.06-1.07,14-1.18,21.04
	c-0.05,3.06-1.5,6.08,0.13,9.17c0.28,0.52,0.3,1.47,0,1.95c-2.11,3.4-1.29,7.26-0.7,10.55c0.56,3.08,0.44,6.08,0.74,9.11v1
	c0,2.64-0.18,5.3,0.05,7.93c0.2,2.31,0.86,4.59,1.38,7.24c1.01-1.46,0.35-2.9,0.57-4.17h1v4.9c1.08-0.42,1.85-0.72,2.91-1.13
	c-0.45,2.6-0.81,4.73-1.24,7.22c-3.18,0.24-4.3-2.11-5.76-4.47c-1.7-2.75-1.84-5.89-2.82-8.81c-1.25-3.71-2.11-7.58-2.15-11.6
	c-0.02-2.19-0.69-4.37-0.92-6.57c-0.23-2.21,0.53-4.56-1.02-6.56c0.25-4.23-1.52-8.25-1.07-12.56c0.36-3.45,0.72-7.12-0.07-10.42
	c-1.49-6.2-0.35-12.39-0.98-18.68c-4.09-1.03-8.27-2.08-12.55-3.15c0.22,1.85,0.41,3.81,0.68,5.76c0.29,2.03,0.66,4.05,0.99,6.07h-1
	c-0.4-0.23-1.04-0.38-1.17-0.72c-1.78-4.66-5.76-7.84-8.12-12.1c-0.8-1.45-1.38-3.03-2.05-4.52c3.67-2.07,7.43-0.97,10.73-1.84
	c3.51-0.93,7.02-0.44,10.65-1.01c-0.45-1.5-0.84-2.8-1.22-4.07c2.33-1.57,4.47-2.67,7.01-0.78c0.43,0.31,1.3,0,1.96,0.05
	c2.62,0.2,2.72,0.32,3.39,3.99c4.69,0,9.62,0.78,14.18-0.18c6.58-1.39,13.07-0.43,19.58-0.75c2-0.1,4.04,0.6,6.06,0.93v3H546.05z"/>
<path class="st6" d="M611.05,347.23c-0.15,1.51-0.52,2.82-1.69,3.72c-0.12,0.09-0.24,0.17-0.36,0.25c-0.2,0.12-0.44,0.24-0.69,0.35
	c-0.86,0.37-1.85,1.25-2.07,2.09c-0.6,2.3-2.38,3.73-4.03,4.76c-3.58,2.22-6.11,5.44-9.05,8.26c-4.8,4.63-9.49,9.37-14.14,14.14
	c-1.44,1.49-2.31,3.74-3.99,4.73c-1.9,1.13-2.5,3.1-4.07,4.36c-1.67,1.35-3.05,3.07-4.64,4.54c-1.37,1.28-3.25,2.2-4.16,3.72
	c-1.07,1.78-2.52,2.75-4.18,3.68c-0.42,0.23-0.9,0.63-1.04,1.05c-0.74,2.33-2.85,3.21-4.56,4.53c-3.83,2.96-6.66,6.92-10.17,10.21
	c-3.53,3.3-7.05,6.65-10.21,10.29c-1.86,2.16-3.26,4.59-5.97,5.98c-1.12,0.58-1.6,2.31-2.54,3.36c-1.87,2.1-4.29,3.58-6.01,5.92
	c-1.65,2.26-3.93,4.06-6.19,6.32c-0.82-0.66-1.73-1.28-2.5-2.04c-3.09-3.04-6.17-6.08-9.19-9.2c-1.44-1.49-3.12-2.74-3.98-4.84
	c-0.65-1.56-1.86-3.03-3.16-4.15c-1.13-0.96-2.75-1.34-4.12-2.04c-3.47-1.76-5.84-4.82-8.14-7.72c-0.98-1.22-2.06-2.43-3.07-3.66
	c-1.26-1.52-3.16-2.35-4.22-4.17c-1.03-1.79-3.45-2.56-3.86-4.91c-2.53-0.99-4.09-3.15-5.91-4.97c-6.98-6.92-13.9-13.91-20.89-20.83
	c-1.12-1.11-2.07-2.36-3.77-2.96c-1.02-0.36-1.59-1.93-2.44-2.88c-1.18-1.33-2.34-2.71-3.69-3.86c-1.68-1.45-3.38-3.04-5.36-3.94
	c-2.12-0.96-2.4-3.57-4.61-4.36c-0.53-0.18-0.86-1.26-1.06-1.99c-0.95-3.49-3.48-5.85-6.11-7.91c-1.62-1.27-2.58-3-4.08-4.3
	c-1.51-1.3-2.82-2.83-4.28-4.21c-1.18-1.11-1.15-2.3-0.18-3.41c3.02-3.43,6.07-6.84,9.21-10.17c0.46-0.49,1.43-0.5,2.17-0.74l1,1
	c0,0.17,0.05,0.35-0.01,0.5c-0.59,1.47-5.23,7.69-6.2,8.51c-1.07,0.91-2.05,1.93-3.48,3.28c1.76,0.73,3.17,1.02,4.18,1.81
	c0.94,0.74,1.32,2.17,2.21,3.02c1.12,1.1,2.64,1.79,3.75,2.9c1.52,1.5,3.48,2.46,4.64,4.46c1.11,1.92,3.53,2.89,4.2,5.27
	c0.12,0.42,0.68,1.02,1.03,1.02c4.51,0.04,4.74,4.91,7.65,6.7c-0.1,1.82,1.53,2.46,2.52,3.44c1.35,1.34,3.4,2.13,4.37,3.65
	c0.98,1.52,1.78,2.73,3.54,3.53c1.69,0.76,3.17,2.13,4.56,3.43c1.77,1.64,3.79,3.15,4.6,5.57c0.42,1.29,1.18,1.99,2.42,2.44
	c1.12,0.4,2.62,0.62,2.09,2.57c-0.11,0.38,0.73,0.97,1.03,1.52c0.64,1.16,2.72-0.75,3.03,1.61c0.14,1.06,1.6,1.98,2.53,2.91
	c1.63,1.64,3.17,3.44,5.02,4.8c1.67,1.24,3.04,2.81,4.64,4.11c2.58,2.11,4.66,4.93,6.59,7.7c0.76,1.09,1.13,2.17,2.63,2.35
	c0.39,0.04,0.83,0.6,1.05,1.02c2.08,4.03,6.95,5.47,8.89,9.72c0.58,1.26,2.99,1.78,3.37,3.01c0.62,1.99,2.34,2.07,3.53,2.91
	c2.34,1.68,3.75,4.09,5.6,6.15c1.04,1.17,1.94,1.52,2.99,0.59c1.12-0.99,2.41-1.94,3.13-3.2c1-1.78,3.02-0.83,4.22-2.04
	c1.19-1.21,0.41-3.07,2.03-4.24c2.7-1.96,4.44-5.15,8-6.1c0.57-0.15,2.55-0.88,0.79-2.33c0-0.06,0.25-0.56,0.46-0.66
	c2.54-1.21,3.41-4.06,5.58-5.62c0.4-0.29,0.72-1.01,1.06-1.01c3.79,0.08,4.19-3.3,5.77-5.48c0.57-0.78,1.13-1.66,1.91-2.19
	c4.63-3.12,8.51-6.96,11.6-11.62c0.45-0.68,1.16-1.19,1.75-1.78c2.82-2.82,5.64-5.67,8.48-8.47c2.71-2.68,4.72-6.02,8.05-8.1
	c1.34-0.84,2.41-2.03,3.74-2.95c2.04-1.4,3.18-4.08,5.16-5.61c1.79-1.38,2.54-3.52,4.4-4.76c1.73-1.14,3.35-2.48,4.89-3.87
	c1.73-1.56,3.32-3.28,4.97-4.93c1.53-1.53,3-3.13,4.61-4.57c1.79-1.62,3.64-3.19,5.62-4.56
	C608.94,347.15,610.1,347.35,611.05,347.23z"/>
<path class="st7" d="M457.1,295.67c-2.15,1.12-3.69,2.67-5.13,4.48c-2.32,2.91-5.14,5.43-7.78,8.07c-0.99,0.99-2.17,1.81-3.12,2.83
	c-1.89,2.01-3.66,4.14-5.56,6.15c-0.24,0.24-0.96,0.03-1.46,0.03l-5,5c0.49,2.26-1.8,3.16-2.57,4.81c-0.68,1.44-2.9,2.16-4.43,3.19
	v-1l-1-1v-3.38c8.15-7.85,16.21-15.67,24.33-23.42c2.11-2,4.5-3.7,6.6-5.7c1.13-1.08,1.83-2.61,2.91-3.75
	c0.47-0.49,1.42-0.51,2.16-0.75v1C457.03,293.32,454.91,294.26,457.1,295.67z"/>
<path class="st8" d="M649.05,507.17c0,0.66-0.09,1.34,0.01,1.99c0.54,3.49,2.68,4.59,5.92,3.07c0.69-0.33,1.38-0.67,2.07-1h1v1.5
	l-4.82,3.82c-1.4,1.41-3.15,0.34-4.52,0.68c-2.98-3.41-2.75-7.45-2.67-11.48c0.05-2.78,0.01-5.57,0.01-8.48
	c-4.25,1.66-4.71,1.51-5.98-2.04c1.56,0,3.02,0.07,4.48-0.02c1.96-0.11,2.5-1.06,1.89-3.09c-0.14-0.45-0.52-1.13-0.35-1.31
	c2.27-2.49,0.02-5.49,1.49-8.51c1.39-1.08,2.43,0.43,3.61,1.56c1.12,1.07,0.83,2.02,0.44,3.45c-0.66,2.44-0.53,5.09-0.77,8.13
	c3.27-0.3,6.07-0.55,9.19-0.84v1.63c-2.82,0.43-5.65,0.86-8.85,1.35l-2.15,2.15V507.17z"/>
<path class="st9" d="M495.45,511.37c1.85-3.04,3.09-5.54,4.76-7.71c1.96-2.57,2.64-4.89,0.37-7.22c-2.72,0.28-5.26,0.45-7.77,0.82
	c-2.03,0.29-3.95,0.93-4.94,3.11c2.35,3.34,5.13,1.57,8.18,0.74c-0.11,1.13,0.01,2.11-0.34,2.88c-0.51,1.13-1.53,2.03-2.02,3.16
	c-0.97,2.2-3.74,3.78-2.3,7.08c2.82,0,5.86,0.44,8.7-0.13c2.71-0.54,5.92-0.26,7.96-2.87v-1
	C504.1,510.58,500.15,510.94,495.45,511.37z M497.69,500.37l0.36,0.36c-0.22,0.11-0.44,0.26-0.67,0.31
	c-0.08,0.02-0.22-0.2-0.33-0.31C497.27,500.61,497.48,500.49,497.69,500.37z"/>
<path class="st2" d="M569.05,509.26c0.01,0.49,0,0.99,0,1.46c-1.2,1.2-2.4,2.36-3.55,3.56c-1.57,1.65-3.53,2.09-5.7,1.94
	c-2.6-0.18-3.82-2.71-2.28-4.92c0.62-0.9,1.55-1.58,2.8-2.8c0.38,1.09,0.59,1.58,0.72,2.1c0.11,0.45,0.11,0.93,0.16,1.41
	c3.05-0.77,3.46-1.25,3.8-4.79c-1.63,0-3.25,0.04-4.86-0.01c-2.23-0.07-4.78-1.55-5.09-2.86c-0.31-1.32,1.19-4.07,2.84-5.12
	c1.69-1.09,3.46-2.07,5.37-2.7c1.98-0.66,3.82-0.72,5.05,2.07c-1.02,0.62-2.15,1.3-3.28,1.98c-1.63,1.3-4.87-0.87-6.22,3.34
	c1.4,0.11,2.61,0.23,3.82,0.29c0.99,0.06,2.03-0.14,2.97,0.1C568.07,504.94,568.98,506.36,569.05,509.26z"/>
<path class="st10" d="M537.14,510.48c-0.67-1.34,0.33-3.05-0.78-4.67c-0.57-0.82,0.25-2.58,0.51-4.44c-0.59-0.27-1.5-0.86-2.49-1.09
	c-0.95-0.22-2.2,0.32-2.93-0.12c-1.8-1.08-3.94-1.46-5.51-0.77c-1.53,0.68-2.39,2.78-3.7,4.09c-0.88,0.89-1.32,1.76-1.21,3.01
	c0.1,1.12,0.02,2.27,0.02,3.29c3.39,2.44,3.39,2.44,7.59,2.36l4.17-4.17c0.21,3.18,1.51,5.57,4.1,7.41
	c1.08-0.62,2.21-1.26,3.49-1.99C539.08,512.26,537.69,511.57,537.14,510.48z M526.28,510.43c-0.72-0.5-1.48-1.02-2.39-1.65
	c1.35-4.01,3.7-6.69,8.08-7.13C530.2,506.6,530.2,506.6,526.28,510.43z"/>
<path class="st10" d="M438.01,508.3c0.07-0.7-0.48-1.46-0.58-2.21c-0.11-0.89-0.24-1.85-0.01-2.68c0.55-2.04,0.07-3.06-1.77-3.17
	c-1.9-0.1-3.69-0.19-5.6-0.85c-1.91-0.66-4.69-0.89-5.24,2.52c-0.09,0.53-0.83,1.03-1.37,1.4c-2.43,1.72-1.65,4.38-1.2,6.34
	c0.38,1.72,2.76,2.36,4.7,2.56c0.95,0.1,1.91,0.02,3.1,0.02c1.25-1.27,2.49-2.53,3.82-3.88c0.23,2.94,1.45,5.37,4.14,6.97
	c1.08-0.57,2.13-1.12,3.17-1.67c0.17-0.38,0.33-0.75,0.5-1.12C438.56,512.35,437.74,510.75,438.01,508.3z M426.81,510.99
	c-0.61-1.21-0.99-1.95-1.6-3.14c0.96-3.1,3.51-5.53,7.87-6.55C432.82,505.46,429.95,507.76,426.81,510.99z"/>
<path class="st11" d="M523.05,248.23v1h-2c-0.39-1.58-1.45-2.16-3-2c-0.33,0-0.83,0.14-0.97-0.02c-1.93-2.22-3.81-4.48-5.89-6.95
	c-2.12,0.35-3.63,1.81-4.81,4.06c-1.75,3.33-4.01,6.35-7.07,9.07c-0.16-0.77-0.25-1.22-0.38-1.84c-1.21-0.52-1.22,1.16-2.03,1.31
	c-0.94,0.19-1.9,0.25-2.85,0.37v-1c1.73-1,1-3.42,2.9-4.56c1.8-1.08,3.05-3.02,4.66-4.46c1.42-1.27,3.07-2.29,4.49-3.56
	c1.68-1.52,3.22-3.18,4.92-4.87c1.77,3.15,3.97,5.37,6.38,7.13C519.82,243.67,520.89,246.38,523.05,248.23z"/>
<path class="st8" d="M596.38,499.24c-1.04-0.69-2.13-1.31-3.32-2.03c-1.46,0.9-2.64,1.67-3.87,2.37c-2.83,1.6-3.68,3.54-2.82,6.48
	c0.26,0.89,0.57,1.79,0.66,2.71c0.29,3.18,1.86,4.74,5.01,4.41c1.67-0.18,3.54-0.53,4.85-1.46c1.35-0.96,2.27-2.63,3.12-4.14
	C600.69,506.35,597.92,500.25,596.38,499.24z M594.55,509.27c-1.52,1.74-3.4,0.47-5.1,1.12c-1.05-2.5,0.48-4.02,1.6-5.67
	c1.52-2.25,3.72-1.32,5.94-1.53C597.26,505.87,596.03,507.57,594.55,509.27z"/>
<path class="st11" d="M479.05,268.23v4c-0.9,1.21-1,1.43-1.19,2.69c-2.42,0.5-4.3,1.18-4.99,4.23c-0.41,1.8-2.48,3.32-4.03,4.72
	c-2.05,1.86-4.63,3.24-5.75,5.9c-0.66,1.57-3.42,0.73-3.15,3.07c-0.35-0.09-0.69-0.19-1.05-0.26c-0.61-0.13-1.23-0.24-1.84-0.35v-1
	c0.94-1.05,0.86-2.68,2.68-3.38c1.23-0.48,1.81-2.48,2.87-3.63c1.9-2.05,3.96-3.97,5.92-5.97c0.78-0.79,1.84-1.41,1.57-2.84
	c-0.07-0.35,0.26-1.03,0.57-1.14C474.03,273.04,476.18,270.13,479.05,268.23z"/>
<path class="st10" d="M470.22,515.27c-1.27-0.24-2.46-0.15-3.2-0.69c-0.97-0.7-2.12-1.44-2.01-3.11c0.16-2.64,0.09-5.31,0-7.96
	c-0.02-0.43-0.63-0.85-0.96-1.28h-1c-0.59-2.58,1.16-3.8,2.81-5.1c4.35,3.46,4.99,5.39,3.55,10.25c-0.5,1.7-0.85,3.38,0.28,5.06
	C470.09,513.04,470,513.96,470.22,515.27z"/>
<path class="st12" d="M496.07,257.35c-1.32,1.11-3.47,2.02-3.73,3.32c-0.44,2.17-2.72,1.97-3.29,3.56c-2.49-0.38-4.01,0.86-5,3l-2-2
	c-0.44-1.63,0.73-2.57,1.77-3.2c3.36-2.03,6.01-4.66,8.02-8.02c0.46-0.76,1.46-1.2,2.21-1.78v1
	C493.38,255.26,495.94,255.71,496.07,257.35z"/>
<path class="st13" d="M464.05,502.23c-0.53,1.77-1.73,3.18-2.15,5.1c-0.41,1.85-2.05,3.42-3.38,5.45c-1.36-1.26-3.63-1.36-1.81-3.79
	c0.41-0.55,0.34-1.54,0.32-2.32c-0.07-3.21-0.04-6.39,1.45-9.38c3.45,0.02,2.27,2.8,2.74,4.94H464.05z"/>
<path class="st14" d="M542.05,268.23c-2.53,0.26-4.41-0.14-5.63-2.95c-0.85-1.95-2.87-3.39-4.37-5.05c1.5-0.09,0.85-1.24,1-2h1
	C536.81,261.49,540,264.39,542.05,268.23z"/>
<path class="st15" d="M532.05,260.23c-1.19-1.79-3.66-1.01-5.15-2.66c0.36-0.73,0.75-1.54,1.15-2.34c1.18,0.95,2.55,1.12,4,1v1l1,1
	C532.9,258.99,533.55,260.13,532.05,260.23z"/>
<path class="st16" d="M549.05,301.23h-6v-3c1.9,0.4,3.82,0.75,5.69,1.28C548.99,299.57,548.95,300.63,549.05,301.23z"/>
<path class="st17" d="M553.27,277.94h-5.52c0.52-1.08,0.91-1.9,1.3-2.71l1-1C551.51,274.95,552.74,275.89,553.27,277.94z"/>
<path class="st18" d="M489.05,264.23c-0.7,0.87-1.41,1.73-2.1,2.6c-0.64,0.8-1.27,1.6-1.9,2.4h-1v-2
	C485.04,265.08,486.56,263.85,489.05,264.23z"/>
<path class="st14" d="M484.05,268.23c-0.28,0.11-0.55,0.22-0.83,0.33c0.28,0.22,0.55,0.45,0.83,0.67v1c-0.56,2.21-2.29,2.08-4,2
	c0.33-1,0.67-2,1-3c1.93-0.47,0.62-2.02,1-3h1l1,1V268.23z"/>
<path class="st19" d="M560.98,284.71c-1.02,0.52-2.04,1.05-3.38,1.75c-0.65-1.01-1.29-1.98-2.11-3.24
	c-0.01-0.01-0.02-0.03-0.03-0.04c0.19,0.01,0.38,0.02,0.57,0.02c0.72,0.01,1.39-0.03,2.02-0.01c0.11,0,0.22,0,0.33,0.01
	c0.12,0,0.24,0.01,0.36,0.03c0.07,0.01,0.15,0.02,0.22,0.03C559.75,283.42,560.43,283.79,560.98,284.71z"/>
<path class="st20" d="M548.25,274.02c-0.88-0.1-1.6-0.01-2.14-0.28c-1.41-0.71-1.06-2.06-1.06-3.52c0-0.1,0-0.21-0.01-0.31
	c1.2,0.72,1.67,1.08,2.26,2.14C547.57,272.54,547.86,273.15,548.25,274.02z"/>
<path class="st21" d="M507.05,379.23h-1c0-1.12-0.11-2.27,0.07-3.36c0.05-0.34,0.89-0.55,1.93-1.13
	C507.81,376.65,508.88,378.15,507.05,379.23z"/>
<path class="st20" d="M532.05,256.23c-1.45,0.12-2.82-0.05-4-1c-1.5-0.09-0.85-1.24-1-2c0.19,0,0.41-0.05,0.6-0.05
	c0.12,0,0.24,0.01,0.32,0.07C529.35,254.2,530.69,255.23,532.05,256.23z"/>
<path class="st19" d="M567.36,290.57c-1.15,0.37-1.76,0.76-2,0.6c-0.84-0.54-1.57-1.25-2.27-1.97c-0.05-0.05,0.62-0.96,0.66-0.93
	C564.62,288.76,565.44,289.32,567.36,290.57z"/>
<path class="st15" d="M481.05,269.23c-0.33,1-0.67,2-1,3h-1v-4h1L481.05,269.23z"/>
<path class="st22" d="M571.4,293.81c-1.13,0.17-1.97,0.37-2.81,0.36c-0.19,0-0.59-0.81-0.5-1.16c0.36-1.44,1.59-0.59,2.43-0.72
	C570.67,292.26,570.95,293,571.4,293.81z"/>
<path class="st4" d="M508.05,511.23v-1c0.11-0.83-0.45-2.12,1.15-1.94c0.33,0.04,0.71,0.82,0.82,1.31
	C510.41,511.32,509.24,511.32,508.05,511.23z"/>
<path class="st23" d="M555.05,282.23l-1,1c-0.39-0.23-0.95-0.36-1.14-0.7c-0.34-0.59-0.46-1.32-0.67-1.99
	c0.59-0.1,1.19-0.21,1.78-0.3c0.01-0.01,0.02-0.01,0.03-0.01c0.01,0.03,0.03,0.05,0.04,0.08c0.15,0.31,0.31,0.62,0.46,0.93
	C554.72,281.57,554.89,281.89,555.05,282.23z"/>
<path class="st4" d="M406.05,515.46c-0.33,0.26-0.67,0.51-1,0.76h-2c0.15-0.76-0.5-1.91,1-2h1
	C405.38,514.64,405.72,515.06,406.05,515.46z"/>
<path class="st17" d="M521.05,249.23v1h-1c-0.67-1-1.33-2-2-3C519.6,247.07,520.66,247.64,521.05,249.23z"/>
<path class="st16" d="M415.88,472.56c-0.65,2-2.31,1.66-3.83,1.67v-1C413.28,472.74,414.37,471.46,415.88,472.56z"/>
<path class="st21" d="M412.05,473.23v1c-0.72,0.22-1.44,0.48-2.18,0.66c-0.59,0.16-1.21,0.23-1.82,0.34v-1
	c0.39-0.33,0.75-0.88,1.18-0.95C410.15,473.13,411.11,473.23,412.05,473.23z"/>
<path class="st24" d="M408.05,474.23v1c-0.72,0.22-1.44,0.48-2.18,0.66c-0.59,0.16-1.21,0.23-1.82,0.34v-2H408.05z"/>
<path class="st22" d="M578.06,305.23c-0.01,0.18-0.01,0.39-0.01,0.64c-0.01-0.01-0.01-0.01-0.02-0.02v-0.01
	c-0.49-0.53-0.77-0.81-0.92-1.01c-0.03-0.02-0.05-0.05-0.07-0.07c-0.06-0.07-0.1-0.13-0.13-0.19c-0.28-0.64-0.5-1.31-0.74-1.96
	c0.42-0.13,0.85-0.25,1.27-0.38c0.2,0.68,0.43,1.36,0.6,2.05C578.09,304.5,578.07,304.74,578.06,305.23z"/>
<path class="st4" d="M406.99,510.07c0.09,0.19-0.61,0.76-0.94,1.15h-1v-3.65C406.07,508.83,406.66,509.39,406.99,510.07z"/>
<path class="st17" d="M432.05,320.23c-0.19,2-0.19,2-3,2l2-2H432.05z"/>
<path class="st18" d="M481.05,269.23l-1-1v-1l1-1h1C481.67,267.2,482.98,268.76,481.05,269.23z"/>
<path class="st15" d="M581.01,304.08c0.14,1.64-1.14,1.01-1.96,1.15h-0.01v-0.01c0.03-0.2,0.02-0.43,0.01-0.66
	c-0.02-0.28-0.04-0.57,0.02-0.8c0.03-0.09,0.07-0.17,0.13-0.24c0.16-0.2,0.46-0.31,0.99-0.26
	C580.5,303.29,580.99,303.77,581.01,304.08z"/>
<path class="st13" d="M484.05,321.23h-1c-1.5-0.09-0.85-1.24-1-2h1C484.55,319.32,483.9,320.46,484.05,321.23z"/>
<path class="st16" d="M485,322.43c0.05,0.12-0.68,0.81-0.81,0.75c-0.44-0.22-0.83-0.61-1.11-1.03c-0.15-0.21-0.03-0.61-0.03-0.92h1
	C484.38,321.62,484.79,321.98,485,322.43z"/>
<polygon class="st23" points="420.05,328.23 420.05,331.23 419.05,331.23 418.05,330.23 "/>
<path class="st24" d="M549.05,301.23c-0.47,1.93-2.02,0.62-3,1v-1H549.05z"/>
<path class="st17" d="M588.66,313.75c-0.63-1-1.01-1.62-1.32-2.11C588.85,311.32,588.85,311.32,588.66,313.75z"/>
<path class="st25" d="M555.45,280.05c-0.08,0.01-0.68,0.13-1.36,0.26c-0.03,0.01-0.05,0.01-0.08,0.02c0-0.03,0-0.06,0.01-0.09
	c0.04-0.65,0.08-1.22,0.13-1.78c0.18-0.13,0.36-0.26,0.55-0.39C554.96,278.76,555.22,279.44,555.45,280.05z"/>
<path class="st22" d="M598.98,324.94c-1.6,0.67-1.92-0.04-1.91-1.74c0-0.34,0.01-0.73,0.03-1.16c0.78,1.2,1.23,1.89,1.66,2.57
	c0.04,0.06,0.08,0.12,0.12,0.18C598.92,324.85,598.95,324.89,598.98,324.94z"/>
<path class="st19" d="M422.05,330.23c-0.09,1.5-1.24,0.85-2,1v-2h1L422.05,330.23z"/>
<path class="st16" d="M506.03,367.46c-0.63,0.31-1.31,0.52-1.98,0.76v-1c0.28-0.11,0.55-0.23,0.83-0.33
	c0.34-0.11,0.69-0.21,1.03-0.31C505.96,366.89,506.12,367.43,506.03,367.46z"/>
<path class="st19" d="M544.05,269.23v1l-2-2C542.81,268.38,543.96,267.73,544.05,269.23z"/>
<path class="st19" d="M556.05,283.23h-2l1-1l0.98,0.98C556.04,283.21,556.04,283.21,556.05,283.23z"/>
<path class="st15" d="M579.08,305.85c0,0.13-0.01,0.24-0.05,0.35c-0.13,0.32-0.43,0.57-0.65,0.86c-0.11-0.29-0.27-0.56-0.32-0.85
	c-0.02-0.12-0.03-0.24-0.03-0.36v-0.01c0-0.2,0.02-0.41,0.02-0.61h1v0.01C579.05,305.44,579.08,305.64,579.08,305.85z"/>
<path class="st20" d="M534.05,258.23h-1l-1-1C532.81,257.38,533.96,256.73,534.05,258.23z"/>
<path class="st22" d="M597.05,322.76c-0.16,0.06-0.33,0.12-0.49,0.18c-0.3,0.11-0.6,0.21-0.91,0.26c-0.14,0.02-0.34-0.36-1.02-1.12
	c0.92,0.25,1.49,0.42,1.97,0.55c0.07,0.02,0.13,0.04,0.2,0.06C596.89,322.7,596.97,322.74,597.05,322.76z"/>
<polygon class="st17" points="422.05,329.23 420.05,329.23 420.05,328.23 421.05,328.23 "/>
<path class="st6" d="M613.42,346.88c-0.7,0.1-1.22,0.18-1.68,0.24c-0.01,0-0.02,0-0.03,0.01h-0.05c-0.01,0-0.02,0.01-0.03,0.01
	c-0.1,0.01-0.2,0.03-0.3,0.04c-0.01,0-0.02,0-0.04,0.01c-0.03,0-0.06,0.01-0.1,0.01c-0.05,0.01-0.09,0.01-0.14,0.02
	c0.39-0.33,0.74-0.72,1.17-0.97C612.36,346.19,612.71,346.51,613.42,346.88z"/>
<path class="st20" d="M524.05,250.23h-1v-2C524.55,248.32,523.9,249.46,524.05,250.23z"/>
<rect x="590.3" y="314.23" class="st22" width="0.5" height="2"/>
<polygon class="st17" points="433.05,319.23 432.05,320.23 432.05,319.23 "/>
<polygon class="st22" points="524.05,250.23 524.05,251.23 523.05,250.23 "/>
<polygon class="st22" points="433.05,318.23 433.05,319.23 432.05,319.23 "/>
<path class="st22" d="M521.05,250.23c-0.22,0.28-0.45,0.55-0.67,0.83c-0.11-0.28-0.22-0.55-0.33-0.83H521.05z"/>
<path class="st22" d="M569.97,296.81c-0.02,0.02-0.05,0.06-0.08,0.09c-0.02,0.01-0.03,0.03-0.05,0.06
	c-0.02,0.01-0.03,0.02-0.05,0.05c-0.05,0.05-0.1,0.09-0.12,0.1c0,0.01-0.01,0.01-0.01,0.01c-0.01,0-0.01,0-0.01,0
	c-0.22-0.12-0.4-0.29-0.6-0.44c0.04-0.04,0.07-0.07,0.11-0.11c0.04-0.04,0.08-0.08,0.12-0.12c0.07-0.07,0.15-0.15,0.22-0.22
	C569.65,296.42,569.81,296.62,569.97,296.81z"/>
<path class="st22" d="M569.05,296.23h-0.45c-0.12-0.16-0.23-0.3-0.35-0.46c-0.02-0.01-0.03-0.03-0.04-0.04
	c-0.02-0.03-0.05-0.06-0.07-0.09c0.21-0.06,0.56-0.23,0.61-0.17C568.91,295.68,568.96,295.96,569.05,296.23z"/>
<polygon class="st20" points="545.05,270.23 544.05,270.23 544.05,269.23 "/>
<polygon class="st23" points="485.05,269.23 484.05,270.23 484.05,269.23 "/>
<polygon class="st11" points="480.05,267.23 480.05,268.23 479.05,268.23 "/>
<polygon class="st12" points="482.05,265.23 482.05,266.23 481.05,266.23 "/>
<path class="st13" d="M406.05,511.23c-0.22,0.28-0.45,0.55-0.67,0.83c-0.11-0.28-0.22-0.55-0.33-0.83H406.05z"/>
<path class="st20" d="M527.05,253.21v0.01h-0.45c-0.11-0.16-0.23-0.3-0.35-0.46c-0.02-0.02-0.03-0.04-0.05-0.06
	c-0.02-0.02-0.04-0.05-0.06-0.07c0.21-0.06,0.56-0.23,0.61-0.17C526.91,252.68,526.96,252.95,527.05,253.21z"/>
<path class="st13" d="M405.05,514.22h-1c0.22-0.28,0.45-0.55,0.67-0.83C404.83,513.68,404.94,513.94,405.05,514.22z"/>
<path class="st20" d="M524.88,250.89c-0.28,0.11-0.55,0.22-0.83,0.33v-1C524.33,250.44,524.6,250.68,524.88,250.89z"/>
<path class="st23" d="M421.05,329.23c0.33,0,0.67,0,1,0c0,0.33,0,0.67,0,1C421.71,329.89,421.38,329.56,421.05,329.23z"/>
<path class="st0" d="M432.05,319.23c0,0.33,0,0.67,0,1c-0.33,0-0.67,0-1,0C431.38,319.89,431.71,319.56,432.05,319.23z"/>
<path class="st0" d="M497.69,500.37c0.13,0.13,0.24,0.24,0.36,0.36c-0.22,0.11-0.44,0.26-0.67,0.31c-0.08,0.02-0.22-0.2-0.33-0.31
	C497.26,500.6,497.48,500.48,497.69,500.37z"/>
<path class="st26" d="M531.97,501.65c-1.77,4.95-1.77,4.95-5.69,8.78c-0.72-0.5-1.48-1.03-2.39-1.66
	C525.24,504.77,527.59,502.08,531.97,501.65z"/>
<path class="st26" d="M426.81,510.99c-0.62-1.21-0.99-1.95-1.6-3.14c0.96-3.1,3.51-5.53,7.87-6.55
	C432.81,505.47,429.95,507.76,426.81,510.99z"/>
<path class="st25" d="M596.98,503.2c0.27,2.67-0.95,4.37-2.44,6.08c-1.52,1.74-3.4,0.47-5.1,1.12c-1.05-2.5,0.48-4.02,1.59-5.67
	C592.56,502.47,594.76,503.41,596.98,503.2z"/>
<path class="st18" d="M482.05,266.23c0-0.33,0-0.67,0-1c0.33,0.33,0.67,0.67,1,1C482.71,266.23,482.38,266.23,482.05,266.23z"/>
<path class="st23" d="M484.05,269.23c-0.28-0.22-0.55-0.45-0.83-0.67c0.28-0.11,0.55-0.22,0.83-0.33
	C484.05,268.56,484.05,268.89,484.05,269.23z"/>
</svg>
